REM MD5 7fc81cabb506e75a379e5c981d4e4405
FILE "Warera Mitsurin Tankentai!! (Japan).bin" BINARY
  TRACK 01 MODE2/2352
    INDEX 01 00:00:00
  TRACK 02 AUDIO
    INDEX 00 35:19:09
    INDEX 01 35:21:09
  TRACK 03 AUDIO
    INDEX 00 35:51:30
    INDEX 01 35:53:30
REM LEADOUT 40:53:30
